<?xml version="1.0" encoding="UTF-8"?>
<!-- Uploaded to: SVG Find, www.svgfind.com, Generator: SVG Find Mixer Tools -->
<svg fill="#000000" width="800px" height="800px" version="1.1" viewBox="144 144 512 512" xmlns="http://www.w3.org/2000/svg">
 <g>
  <path d="m576.33 324.43h-50.383v-4.3203c0-13.363-5.3086-26.18-14.754-35.625l-46.059-46.059c-9.4453-9.4453-22.266-14.758-35.625-14.758h-155.46v100.76h-50.383c-13.91 0-25.188 11.281-25.188 25.191v100.76c0 13.91 11.277 25.191 25.188 25.191h50.383v100.76h251.9v-100.76h50.383c13.91 0 25.191-11.281 25.191-25.191v-100.76c0-13.91-11.281-25.191-25.191-25.191zm-277.09-75.57h125.95c13.91 0 25.191 11.281 25.191 25.191v25.191h25.191c13.91 0 25.191 11.277 25.191 25.188v50.383h-201.52zm201.52 302.29h-201.52v-75.57h201.52zm75.57-176.33h-25.191v-25.191h25.191z"/>
  <path d="m324.43 500.76h151.14v25.188h-151.14z"/>
 </g>
</svg>